# xmcd
#
# Track frame offsets:
#	150
#	19495
#	33968
#	61138
#	76922
#	96671
#	111495
#
# Disc length: 1618 seconds
#
# Revision: 0
# Processed by: cddbd v1.5.1PL0 Copyright (c) Steve Scherf et al.
# Submitted via: dBpowerAMP V4.0
#
DISCID=59065007
DTITLE=Bray Visa - This time around
DYEAR=2002
DGENRE=country
TTITLE0=The last High noon
TTITLE1=This time around
TTITLE2=Say goodbye
TTITLE3=El Corazon del Miguel
TTITLE4=Once in a while
TTITLE5=Something good
TTITLE6=Garden County
EXTD=
EXTT0=
EXTT1=
EXTT2=
EXTT3=
EXTT4=
EXTT5=
EXTT6=
PLAYORDER=
